<?xml version="1.0" encoding="UTF-8" standalone="no"?>
<svg width="20px" height="120px" viewBox="0 0 20 120" version="1.1" xmlns="http://www.w3.org/2000/svg" xmlns:xlink="http://www.w3.org/1999/xlink" xmlns:sketch="http://www.bohemiancoding.com/sketch/ns">
    <!-- Generator: Sketch Beta 3.2 (9961) - http://www.bohemiancoding.com/sketch -->
    <title>icon_search</title>
    <desc>Created with Sketch Beta.</desc>
    <defs></defs>
    <g id="未登录" stroke="none" stroke-width="1" fill="none" fill-rule="evenodd" sketch:type="MSPage">
        <g id="slice" sketch:type="MSArtboardGroup" transform="translate(-299.000000, -449.000000)" fill="#FFFFFF">
            <path d="M318.714714,466.828514 L315.083889,463.193897 C315.020979,463.130921 314.941378,463.09879 314.869481,463.051237 C316.978902,460.065658 316.718274,455.91438 314.046511,453.241112 C311.062764,450.252963 306.223804,450.252963 303.238773,453.241112 C300.253742,456.227975 300.253742,461.07199 303.238773,464.060138 C305.938782,466.762967 310.143503,466.995593 313.132385,464.80814 C313.178605,464.876257 313.208134,464.952085 313.268477,465.01249 L316.899302,468.647108 C317.4013,469.149631 318.213999,469.149631 318.714714,468.647108 C319.215429,468.143299 319.215429,467.329752 318.714714,466.828514 L318.714714,466.828514 Z M312.441178,462.413253 C310.293705,464.560916 306.812117,464.560916 304.663355,462.413253 C302.515882,460.265591 302.515882,456.782409 304.663355,454.634747 C306.810828,452.487084 310.292416,452.487084 312.441178,454.634747 C314.589941,456.783698 314.589941,460.265591 312.441178,462.413253 L312.441178,462.413253 Z" id="Shape-4" opacity="0.8" sketch:type="MSShapeGroup"></path>
            <path d="M318.714714,516.828514 L315.083889,513.193897 C315.020979,513.130921 314.941378,513.09879 314.869481,513.051237 C316.978902,510.065658 316.718274,505.91438 314.046511,503.241112 C311.062764,500.252963 306.223804,500.252963 303.238773,503.241112 C300.253742,506.227975 300.253742,511.07199 303.238773,514.060138 C305.938782,516.762967 310.143503,516.995593 313.132385,514.80814 C313.178605,514.876257 313.208134,514.952085 313.268477,515.01249 L316.899302,518.647108 C317.4013,519.149631 318.213999,519.149631 318.714714,518.647108 C319.215429,518.143299 319.215429,517.329752 318.714714,516.828514 L318.714714,516.828514 Z M312.441178,512.413253 C310.293705,514.560916 306.812117,514.560916 304.663355,512.413253 C302.515882,510.265591 302.515882,506.782409 304.663355,504.634747 C306.810828,502.487084 310.292416,502.487084 312.441178,504.634747 C314.589941,506.783698 314.589941,510.265591 312.441178,512.413253 L312.441178,512.413253 Z" id="Shape-5" sketch:type="MSShapeGroup"></path>
            <path d="M318.714714,566.828514 L315.083889,563.193897 C315.020979,563.130921 314.941378,563.09879 314.869481,563.051237 C316.978902,560.065658 316.718274,555.91438 314.046511,553.241112 C311.062764,550.252963 306.223804,550.252963 303.238773,553.241112 C300.253742,556.227975 300.253742,561.07199 303.238773,564.060138 C305.938782,566.762967 310.143503,566.995593 313.132385,564.80814 C313.178605,564.876257 313.208134,564.952085 313.268477,565.01249 L316.899302,568.647108 C317.4013,569.149631 318.213999,569.149631 318.714714,568.647108 C319.215429,568.143299 319.215429,567.329752 318.714714,566.828514 L318.714714,566.828514 Z M312.441178,562.413253 C310.293705,564.560916 306.812117,564.560916 304.663355,562.413253 C302.515882,560.265591 302.515882,556.782409 304.663355,554.634747 C306.810828,552.487084 310.292416,552.487084 312.441178,554.634747 C314.589941,556.783698 314.589941,560.265591 312.441178,562.413253 L312.441178,562.413253 Z" id="Shape-6" opacity="0.9" sketch:type="MSShapeGroup"></path>
        </g>
    </g>
</svg>